<svg width="31" height="14" viewBox="0 0 31 14" fill="none" xmlns="http://www.w3.org/2000/svg">
<path d="M23 2.94286L22.5409 5.25157C22.5254 5.32932 22.5177 5.3682 22.5069 5.40622C22.4978 5.43862 22.487 5.47054 22.4746 5.50185C22.4601 5.53859 22.4427 5.57419 22.4078 5.6454L21.5 7.5M19.5909 9.5L16.5439 12.1069C16.1693 12.4273 15.9821 12.5876 15.7716 12.6474C15.5938 12.6979 15.4054 12.6981 15.2275 12.6481C15.0168 12.5888 14.8292 12.4291 14.4538 12.1097L13.2841 11.1143M19.5909 9.5L17 5.77143M19.5909 9.5L21.5 7.5M8 2.62857L8.63486 4.67705C8.65263 4.7344 8.66152 4.76308 8.67209 4.79112C8.6811 4.81501 8.69101 4.83856 8.70182 4.8617C8.71451 4.88884 8.72882 4.91523 8.75745 4.96802L10.3864 7.97143M10.3864 7.97143L10.8998 8.76034C10.9377 8.81859 10.9567 8.84772 10.9775 8.87539C10.9953 8.89897 11.0142 8.92175 11.034 8.94367C11.0572 8.96939 11.0822 8.99349 11.1323 9.04171L13.2841 11.1143M10.3864 7.97143L12.1461 5.80829C12.2536 5.67626 12.3073 5.61025 12.3486 5.53736C12.3838 5.4753 12.4122 5.40967 12.4334 5.34156C12.4583 5.26156 12.4698 5.17723 12.4926 5.00858L12.7727 2.94286M13.2841 11.1143L13.821 10.0143M15.1591 6.71429L14.8582 7.82392C14.843 7.87976 14.8355 7.90768 14.8263 7.93506C14.8185 7.9584 14.8099 7.98145 14.8004 8.00415C14.7892 8.03079 14.7765 8.05678 14.7511 8.10877L14.358 8.91429M17 5.77143L16.1365 3.81C16.085 3.69306 16.0593 3.63459 16.0413 3.57387C16.0259 3.52215 16.0148 3.46928 16.008 3.41577C16 3.35295 16 3.28906 16 3.16128V1M17 5.77143L18.0345 4.44686C18.1073 4.35368 18.1436 4.30709 18.1741 4.25694C18.2 4.21422 18.2228 4.16962 18.242 4.1235C18.2647 4.06937 18.2809 4.01253 18.3135 3.89887L19 1.5M21.5 7.5L20.3494 6.23172C20.1934 6.05974 20.1154 5.97375 20.0601 5.87539C20.0131 5.79175 19.9783 5.70178 19.957 5.60825C19.9318 5.49825 19.9318 5.38215 19.9318 5.14994V4.51429M14.358 8.91429L13.6699 8.10882C13.5256 7.93987 13.4534 7.85539 13.4024 7.75997C13.359 7.67881 13.3269 7.59204 13.3072 7.50213C13.2841 7.39641 13.2841 7.28531 13.2841 7.06311V6.71429M14.358 8.91429L13.821 10.0143M13.821 10.0143L14.6399 9.91811C14.8347 9.89525 14.932 9.88381 15.0235 9.85466C15.1014 9.82985 15.1759 9.79559 15.2455 9.75264C15.3272 9.70217 15.3993 9.63572 15.5434 9.50283L16.1818 8.91429" stroke="#FF9900" stroke-linecap="round" stroke-linejoin="round"/>
<path d="M23 2.94286L22.5409 5.25157C22.5254 5.32932 22.5177 5.3682 22.5069 5.40622C22.4978 5.43862 22.487 5.47054 22.4746 5.50185C22.4601 5.53859 22.4427 5.57419 22.4078 5.6454L21.5 7.5M19.5909 9.5L16.5439 12.1069C16.1693 12.4273 15.9821 12.5876 15.7716 12.6474C15.5938 12.6979 15.4054 12.6981 15.2275 12.6481C15.0168 12.5888 14.8292 12.4291 14.4538 12.1097L13.2841 11.1143M19.5909 9.5L17 5.77143M19.5909 9.5L21.5 7.5M8 2.62857L8.63486 4.67705C8.65263 4.7344 8.66152 4.76308 8.67209 4.79112C8.6811 4.81501 8.69101 4.83856 8.70182 4.8617C8.71451 4.88884 8.72882 4.91523 8.75745 4.96802L10.3864 7.97143M10.3864 7.97143L10.8998 8.76034C10.9377 8.81859 10.9567 8.84772 10.9775 8.87539C10.9953 8.89897 11.0142 8.92175 11.034 8.94367C11.0572 8.96939 11.0822 8.99349 11.1323 9.04171L13.2841 11.1143M10.3864 7.97143L12.1461 5.80829C12.2536 5.67626 12.3073 5.61025 12.3486 5.53736C12.3838 5.4753 12.4122 5.40967 12.4334 5.34156C12.4583 5.26156 12.4698 5.17723 12.4926 5.00858L12.7727 2.94286M13.2841 11.1143L13.821 10.0143M15.1591 6.71429L14.8582 7.82392C14.843 7.87976 14.8355 7.90768 14.8263 7.93506C14.8185 7.9584 14.8099 7.98145 14.8004 8.00415C14.7892 8.03079 14.7765 8.05678 14.7511 8.10877L14.358 8.91429M17 5.77143L16.1365 3.81C16.085 3.69306 16.0593 3.63459 16.0413 3.57387C16.0259 3.52215 16.0148 3.46928 16.008 3.41577C16 3.35295 16 3.28906 16 3.16128V1M17 5.77143L18.0345 4.44686C18.1073 4.35368 18.1436 4.30709 18.1741 4.25694C18.2 4.21422 18.2228 4.16962 18.242 4.1235C18.2647 4.06937 18.2809 4.01253 18.3135 3.89887L19 1.5M21.5 7.5L20.3494 6.23172C20.1934 6.05974 20.1154 5.97375 20.0601 5.87539C20.0131 5.79175 19.9783 5.70178 19.957 5.60825C19.9318 5.49825 19.9318 5.38215 19.9318 5.14994V4.51429M14.358 8.91429L13.6699 8.10882C13.5256 7.93987 13.4534 7.85539 13.4024 7.75997C13.359 7.67881 13.3269 7.59204 13.3072 7.50213C13.2841 7.39641 13.2841 7.28531 13.2841 7.06311V6.71429M14.358 8.91429L13.821 10.0143M13.821 10.0143L14.6399 9.91811C14.8347 9.89525 14.932 9.88381 15.0235 9.85466C15.1014 9.82985 15.1759 9.79559 15.2455 9.75264C15.3272 9.70217 15.3993 9.63572 15.5434 9.50283L16.1818 8.91429" stroke="url(#paint0_linear_8_2)" stroke-linecap="round" stroke-linejoin="round"/>
<path d="M6 11L1.78885 8.89443C1.05181 8.5259 1.05181 7.4741 1.78885 7.10557L6 5" stroke="#FF9900" stroke-linecap="round"/>
<path d="M6 11L1.78885 8.89443C1.05181 8.5259 1.05181 7.4741 1.78885 7.10557L6 5" stroke="url(#paint1_linear_8_2)" stroke-linecap="round"/>
<path d="M25 11L29.2111 8.89443C29.9482 8.5259 29.9482 7.4741 29.2111 7.10557L25 5" stroke="#FF9900" stroke-linecap="round"/>
<path d="M25 11L29.2111 8.89443C29.9482 8.5259 29.9482 7.4741 29.2111 7.10557L25 5" stroke="url(#paint2_linear_8_2)" stroke-linecap="round"/>
<defs>
<linearGradient id="paint0_linear_8_2" x1="15.5" y1="2.62857" x2="15.5" y2="13" gradientUnits="userSpaceOnUse">
<stop stop-color="#FF3D00"/>
<stop offset="1" stop-color="white" stop-opacity="0"/>
</linearGradient>
<linearGradient id="paint1_linear_8_2" x1="3" y1="5" x2="3" y2="11" gradientUnits="userSpaceOnUse">
<stop stop-color="#FF0000"/>
<stop offset="1" stop-color="white" stop-opacity="0"/>
</linearGradient>
<linearGradient id="paint2_linear_8_2" x1="28" y1="5" x2="28" y2="11" gradientUnits="userSpaceOnUse">
<stop stop-color="#FF0000"/>
<stop offset="1" stop-color="white" stop-opacity="0"/>
</linearGradient>
</defs>
</svg>
