<svg width="35" height="35" viewBox="0 0 35 35" fill="none" xmlns="http://www.w3.org/2000/svg">
<path d="M25 11.9429L24.5409 14.2516C24.5254 14.3293 24.5177 14.3682 24.5069 14.4062C24.4978 14.4386 24.487 14.4705 24.4746 14.5018C24.4601 14.5386 24.4427 14.5742 24.4078 14.6454L23.5 16.5M21.5909 18.5L18.5439 21.1069C18.1693 21.4273 17.9821 21.5876 17.7716 21.6474C17.5938 21.6979 17.4054 21.6981 17.2275 21.6481C17.0168 21.5888 16.8292 21.4291 16.4538 21.1097L15.2841 20.1143M21.5909 18.5L19 14.7714M21.5909 18.5L23.5 16.5M10 11.6286L10.6349 13.677C10.6526 13.7344 10.6615 13.7631 10.6721 13.7911C10.6811 13.815 10.691 13.8386 10.7018 13.8617C10.7145 13.8888 10.7288 13.9152 10.7574 13.968L12.3864 16.9714M12.3864 16.9714L12.8998 17.7603C12.9377 17.8186 12.9567 17.8477 12.9775 17.8754C12.9953 17.899 13.0142 17.9218 13.034 17.9437C13.0572 17.9694 13.0822 17.9935 13.1323 18.0417L15.2841 20.1143M12.3864 16.9714L14.1461 14.8083C14.2536 14.6763 14.3073 14.6102 14.3486 14.5374C14.3838 14.4753 14.4122 14.4097 14.4334 14.3416C14.4583 14.2616 14.4698 14.1772 14.4926 14.0086L14.7727 11.9429M15.2841 20.1143L15.821 19.0143M17.1591 15.7143L16.8582 16.8239C16.843 16.8798 16.8355 16.9077 16.8263 16.9351C16.8185 16.9584 16.8099 16.9815 16.8004 17.0042C16.7892 17.0308 16.7765 17.0568 16.7511 17.1088L16.358 17.9143M19 14.7714L18.1365 12.81C18.085 12.6931 18.0593 12.6346 18.0413 12.5739C18.0259 12.5222 18.0148 12.4693 18.008 12.4158C18 12.3529 18 12.2891 18 12.1613V10M19 14.7714L20.0345 13.4469C20.1073 13.3537 20.1436 13.3071 20.1741 13.2569C20.2 13.2142 20.2228 13.1696 20.242 13.1235C20.2647 13.0694 20.2809 13.0125 20.3135 12.8989L21 10.5M23.5 16.5L22.3494 15.2317C22.1934 15.0597 22.1154 14.9738 22.0601 14.8754C22.0131 14.7918 21.9783 14.7018 21.957 14.6082C21.9318 14.4982 21.9318 14.3821 21.9318 14.1499V13.5143M16.358 17.9143L15.6699 17.1088C15.5256 16.9399 15.4534 16.8554 15.4024 16.76C15.359 16.6788 15.3269 16.592 15.3072 16.5021C15.2841 16.3964 15.2841 16.2853 15.2841 16.0631V15.7143M16.358 17.9143L15.821 19.0143M15.821 19.0143L16.6399 18.9181C16.8347 18.8952 16.932 18.8838 17.0235 18.8547C17.1014 18.8298 17.1759 18.7956 17.2455 18.7526C17.3272 18.7022 17.3993 18.6357 17.5434 18.5028L18.1818 17.9143" stroke="#FF9900" stroke-linecap="round" stroke-linejoin="round"/>
<path d="M25 11.9429L24.5409 14.2516C24.5254 14.3293 24.5177 14.3682 24.5069 14.4062C24.4978 14.4386 24.487 14.4705 24.4746 14.5018C24.4601 14.5386 24.4427 14.5742 24.4078 14.6454L23.5 16.5M21.5909 18.5L18.5439 21.1069C18.1693 21.4273 17.9821 21.5876 17.7716 21.6474C17.5938 21.6979 17.4054 21.6981 17.2275 21.6481C17.0168 21.5888 16.8292 21.4291 16.4538 21.1097L15.2841 20.1143M21.5909 18.5L19 14.7714M21.5909 18.5L23.5 16.5M10 11.6286L10.6349 13.677C10.6526 13.7344 10.6615 13.7631 10.6721 13.7911C10.6811 13.815 10.691 13.8386 10.7018 13.8617C10.7145 13.8888 10.7288 13.9152 10.7574 13.968L12.3864 16.9714M12.3864 16.9714L12.8998 17.7603C12.9377 17.8186 12.9567 17.8477 12.9775 17.8754C12.9953 17.899 13.0142 17.9218 13.034 17.9437C13.0572 17.9694 13.0822 17.9935 13.1323 18.0417L15.2841 20.1143M12.3864 16.9714L14.1461 14.8083C14.2536 14.6763 14.3073 14.6102 14.3486 14.5374C14.3838 14.4753 14.4122 14.4097 14.4334 14.3416C14.4583 14.2616 14.4698 14.1772 14.4926 14.0086L14.7727 11.9429M15.2841 20.1143L15.821 19.0143M17.1591 15.7143L16.8582 16.8239C16.843 16.8798 16.8355 16.9077 16.8263 16.9351C16.8185 16.9584 16.8099 16.9815 16.8004 17.0042C16.7892 17.0308 16.7765 17.0568 16.7511 17.1088L16.358 17.9143M19 14.7714L18.1365 12.81C18.085 12.6931 18.0593 12.6346 18.0413 12.5739C18.0259 12.5222 18.0148 12.4693 18.008 12.4158C18 12.3529 18 12.2891 18 12.1613V10M19 14.7714L20.0345 13.4469C20.1073 13.3537 20.1436 13.3071 20.1741 13.2569C20.2 13.2142 20.2228 13.1696 20.242 13.1235C20.2647 13.0694 20.2809 13.0125 20.3135 12.8989L21 10.5M23.5 16.5L22.3494 15.2317C22.1934 15.0597 22.1154 14.9738 22.0601 14.8754C22.0131 14.7918 21.9783 14.7018 21.957 14.6082C21.9318 14.4982 21.9318 14.3821 21.9318 14.1499V13.5143M16.358 17.9143L15.6699 17.1088C15.5256 16.9399 15.4534 16.8554 15.4024 16.76C15.359 16.6788 15.3269 16.592 15.3072 16.5021C15.2841 16.3964 15.2841 16.2853 15.2841 16.0631V15.7143M16.358 17.9143L15.821 19.0143M15.821 19.0143L16.6399 18.9181C16.8347 18.8952 16.932 18.8838 17.0235 18.8547C17.1014 18.8298 17.1759 18.7956 17.2455 18.7526C17.3272 18.7022 17.3993 18.6357 17.5434 18.5028L18.1818 17.9143" stroke="url(#paint0_linear_8_2)" stroke-linecap="round" stroke-linejoin="round"/>
<path d="M8 20L3.78885 17.8944C3.05181 17.5259 3.05181 16.4741 3.78885 16.1056L8 14" stroke="#FF9900" stroke-linecap="round"/>
<path d="M8 20L3.78885 17.8944C3.05181 17.5259 3.05181 16.4741 3.78885 16.1056L8 14" stroke="url(#paint1_linear_8_2)" stroke-linecap="round"/>
<path d="M27 20L31.2111 17.8944C31.9482 17.5259 31.9482 16.4741 31.2111 16.1056L27 14" stroke="#FF9900" stroke-linecap="round"/>
<path d="M27 20L31.2111 17.8944C31.9482 17.5259 31.9482 16.4741 31.2111 16.1056L27 14" stroke="url(#paint2_linear_8_2)" stroke-linecap="round"/>
<rect x="0.5" y="0.5" width="34" height="34" rx="4.5" stroke="#FF9900"/>
<rect x="0.5" y="0.5" width="34" height="34" rx="4.5" stroke="url(#paint3_linear_8_2)"/>
<defs>
<linearGradient id="paint0_linear_8_2" x1="17.5" y1="11.6286" x2="17.5" y2="22" gradientUnits="userSpaceOnUse">
<stop stop-color="#FF3D00"/>
<stop offset="1" stop-color="white" stop-opacity="0"/>
</linearGradient>
<linearGradient id="paint1_linear_8_2" x1="5" y1="14" x2="5" y2="20" gradientUnits="userSpaceOnUse">
<stop stop-color="#FF0000"/>
<stop offset="1" stop-color="white" stop-opacity="0"/>
</linearGradient>
<linearGradient id="paint2_linear_8_2" x1="30" y1="14" x2="30" y2="20" gradientUnits="userSpaceOnUse">
<stop stop-color="#FF0000"/>
<stop offset="1" stop-color="white" stop-opacity="0"/>
</linearGradient>
<linearGradient id="paint3_linear_8_2" x1="17.5" y1="0" x2="17.5" y2="35" gradientUnits="userSpaceOnUse">
<stop stop-color="#FF3D00"/>
<stop offset="1" stop-color="#FF3D00" stop-opacity="0"/>
</linearGradient>
</defs>
</svg>
